<?xml version="1.0" encoding="utf-8"?>
<!-- Generator: Adobe Illustrator 21.1.0, SVG Export Plug-In . SVG Version: 6.00 Build 0) -->
<svg version="1.1" id="Draw_x5F_Rectangle" xmlns="http://www.w3.org/2000/svg" xmlns:xlink="http://www.w3.org/1999/xlink" x="0px"
 y="0px" viewBox="0 0 20 20" style="enable-background:new 0 0 20 20;" xml:space="preserve">
<path d="
		M20,10l-4.8,2.1c-0.2,0-0.4-0.1-0.7-0.1c-1.5,0-2.8,0.8-3.7,1.9l-2.2,0.9c-0.5-1.2-1.5-2.1-2.7-2.6V9H3v1h2l0.4,2.1C5.1,12,4.8,12,4.5,12c-1.3,0-2.5,0.6-3.4,1.6L1.5,10H2V9H0V7h6l2,2h12V10z M14.5,13c1.9,0,3.5,1.6,3.5,3.5S16.4,20,14.5,20S11,18.4,11,16.5S12.6,13,14.5,13z M14.5,15c-0.8,0-1.5,0.7-1.5,1.5c0,0.8,0.7,1.5,1.5,1.5s1.5-0.7,1.5-1.5S15.3,15,14.5,15zM8,16.5C8,18.4,6.4,20,4.5,20S1,18.4,1,16.5S2.6,13,4.5,13S8,14.6,8,16.5z M6,16.5C6,15.7,5.3,15,4.5,15S3,15.7,3,16.5C3,17.3,3.7,18,4.5,18S6,17.3,6,16.5z M5,6h2l2,2h4V5L9,3L6,4L5,6z M0,0 M20,20
"/>
</svg>
