<?xml version="1.0" encoding="utf-8"?><!-- Generator: Adobe Illustrator 21.1.0, SVG Export Plug-In . SVG Version: 6.00 Build 0) --><svg version="1.1" id="Layer_1" xmlns="http://www.w3.org/2000/svg" xmlns:xlink="http://www.w3.org/1999/xlink" x="0px" y="0px" viewBox="0 0 20 20" style="enable-background:new 0 0 20 20;" xml:space="preserve"><path d="M20,8l-4.8,2.1c-0.2,0-0.4-0.1-0.7-0.1c-1.5,0-2.8,0.8-3.7,1.9l-2.2,0.9c-0.5-1.2-1.5-2.1-2.7-2.6V7H3v1h2l0.4,2.1 C5.1,10,4.8,10,4.5,10c-1.3,0-2.5,0.6-3.4,1.6L1.5,8H2V7H0V5h6l1,1h13V8z M14.5,11c1.9,0,3.5,1.6,3.5,3.5S16.4,18,14.5,18 S11,16.4,11,14.5S12.6,11,14.5,11z M14.5,13c-0.8,0-1.5,0.7-1.5,1.5s0.7,1.5,1.5,1.5s1.5-0.7,1.5-1.5S15.3,13,14.5,13z M8,14.5 C8,16.4,6.4,18,4.5,18S1,16.4,1,14.5S2.6,11,4.5,11S8,12.6,8,14.5z M6,14.5C6,13.7,5.3,13,4.5,13S3,13.7,3,14.5S3.7,16,4.5,16 S6,15.3,6,14.5z M0,0 M20,20"/></svg>
