<?xml version="1.0" encoding="utf-8"?><!-- Generator: Adobe Illustrator 21.1.0, SVG Export Plug-In . SVG Version: 6.00 Build 0) --><svg version="1.1" id="Layer_1" xmlns="http://www.w3.org/2000/svg" xmlns:xlink="http://www.w3.org/1999/xlink" x="0px" y="0px" viewBox="0 0 20 20" style="enable-background:new 0 0 20 20;" xml:space="preserve"><path d="M19.2,11.8L12.4,5H14l5.3,2.7L20,11L19.2,11.8z M11,3L8,0L6.5,1.5l3,3L8,6v3l3,3H6V9L5,8H1v1v1H0.5l-0.4,3.6 C1,12.6,2.2,12,3.5,12c0.3,0,0.6,0,0.9,0.1L4,10H2V9h2.9v3.2c1.2,0.5,2.2,1.4,2.7,2.6L9.8,14c0.8-1.2,2.2-2,3.7-2 c2,0,3.7,1.4,4.3,3.2l0.7,0.3L20,14l-9-9V3z M7,16.5C7,18.4,5.4,20,3.5,20S0,18.4,0,16.5S1.6,13,3.5,13S7,14.6,7,16.5z M5,16.5 C5,15.7,4.3,15,3.5,15S2,15.7,2,16.5C2,17.3,2.7,18,3.5,18S5,17.3,5,16.5z M17,16.5c0,1.9-1.6,3.5-3.5,3.5S10,18.4,10,16.5 s1.6-3.5,3.5-3.5S17,14.6,17,16.5z M15,16.5c0-0.8-0.7-1.5-1.5-1.5S12,15.7,12,16.5c0,0.8,0.7,1.5,1.5,1.5S15,17.3,15,16.5z M0,0 M20,20"/></svg>
